HIERARCHY
ROOT Hips
{
	OFFSET 0.00000 0.00000 0.00000
	CHANNELS 6 Xposition Yposition Zposition Zrotation Yrotation Xrotation 
	JOINT LHipJoint
	{
		OFFSET 0 0 0
		CHANNELS 3 Zrotation Yrotation Xrotation
		JOINT LeftUpLeg
		{
			OFFSET 1.34019 -1.87553 0.90315
			CHANNELS 3 Zrotation Yrotation Xrotation
			JOINT LeftLeg
			{
				OFFSET 2.55316 -7.01474 0.00000
				CHANNELS 3 Zrotation Yrotation Xrotation
				JOINT LeftFoot
				{
					OFFSET 2.64657 -7.27139 0.00000
					CHANNELS 3 Zrotation Yrotation Xrotation
					JOINT LeftToeBase
					{
						OFFSET 0.24207 -0.66507 2.14489
						CHANNELS 3 Zrotation Yrotation Xrotation
						End Site
						{
							OFFSET 0.00000 -0.00000 1.12451
						}
					}
				}
			}
		}
	}
	JOINT RHipJoint
	{
		OFFSET 0 0 0
		CHANNELS 3 Zrotation Yrotation Xrotation
		JOINT RightUpLeg
		{
			OFFSET -1.28320 -1.87553 0.90315
			CHANNELS 3 Zrotation Yrotation Xrotation
			JOINT RightLeg
			{
				OFFSET -2.60484 -7.15674 0.00000
				CHANNELS 3 Zrotation Yrotation Xrotation
				JOINT RightFoot
				{
					OFFSET -2.60296 -7.15159 0.00000
					CHANNELS 3 Zrotation Yrotation Xrotation
					JOINT RightToeBase
					{
						OFFSET -0.31082 -0.85398 2.28998
						CHANNELS 3 Zrotation Yrotation Xrotation
						End Site
						{
							OFFSET -0.00000 -0.00000 1.21611
						}
					}
				}
			}
		}
	}
	JOINT LowerBack
	{
		OFFSET 0 0 0
		CHANNELS 3 Zrotation Yrotation Xrotation
		JOINT Spine
		{
			OFFSET -0.00160 2.05581 -0.15156
			CHANNELS 3 Zrotation Yrotation Xrotation
			JOINT Spine1
			{
				OFFSET 0.04594 2.06326 -0.01617
				CHANNELS 3 Zrotation Yrotation Xrotation
				JOINT Neck
				{
					OFFSET 0 0 0
					CHANNELS 3 Zrotation Yrotation Xrotation
					JOINT Neck1
					{
						OFFSET 0.03753 1.73883 0.26751
						CHANNELS 3 Zrotation Yrotation Xrotation
						JOINT Head
						{
							OFFSET -0.09795 1.76129 -0.31794
							CHANNELS 3 Zrotation Yrotation Xrotation
							End Site
							{
								OFFSET -0.03611 1.79987 -0.13846
							}
						}
					}
				}
				JOINT LeftShoulder
				{
					OFFSET 0 0 0
					CHANNELS 3 Zrotation Yrotation Xrotation
					JOINT LeftArm
					{
						OFFSET 3.30667 1.29205 -0.22445
						CHANNELS 3 Zrotation Yrotation Xrotation
						JOINT LeftForeArm
						{
							OFFSET 4.92785 -0.00000 -0.00000
							CHANNELS 3 Zrotation Yrotation Xrotation
							JOINT LeftHand
							{
								OFFSET 3.44052 -0.00000 0.00000
								CHANNELS 3 Zrotation Yrotation Xrotation
								JOINT LeftFingerBase
								{
									OFFSET 0 0 0
									CHANNELS 3 Zrotation Yrotation Xrotation
									JOINT LeftHandIndex1
									{
										OFFSET 0.65433 -0.00000 0.00000
										CHANNELS 3 Zrotation Yrotation Xrotation
										End Site
										{
											OFFSET 0.52753 -0.00000 0.00000
										}
									}
								}
								JOINT LThumb
								{
									OFFSET 0 0 0
									CHANNELS 3 Zrotation Yrotation Xrotation
									End Site
									{
										OFFSET 0.53559 -0.00000 0.53559
									}
								}
							}
						}
					}
				}
				JOINT RightShoulder
				{
					OFFSET 0 0 0
					CHANNELS 3 Zrotation Yrotation Xrotation
					JOINT RightArm
					{
						OFFSET -3.20032 1.49783 -0.27688
						CHANNELS 3 Zrotation Yrotation Xrotation
						JOINT RightForeArm
						{
							OFFSET -5.09181 -0.00000 -0.00000
							CHANNELS 3 Zrotation Yrotation Xrotation
							JOINT RightHand
							{
								OFFSET -3.49865 -0.00000 -0.00000
								CHANNELS 3 Zrotation Yrotation Xrotation
								JOINT RightFingerBase
								{
									OFFSET 0 0 0
									CHANNELS 3 Zrotation Yrotation Xrotation
									JOINT RightHandIndex1
									{
										OFFSET -0.66641 -0.00000 0.00000
										CHANNELS 3 Zrotation Yrotation Xrotation
										End Site
										{
											OFFSET -0.53728 -0.00000 0.00000
										}
									}
								}
								JOINT RThumb
								{
									OFFSET 0 0 0
									CHANNELS 3 Zrotation Yrotation Xrotation
									End Site
									{
										OFFSET -0.54548 -0.00000 0.54548
									}
								}
							}
						}
					}
				}
			}
		}
	}
}
MOTION
Frames: 7
Frame Time: .0083333
-0.2095 17.8336 -30.6658 0 0 0 0 0 0 -21 0 0 0 0 0 0 0 0 0 0 0 0 0 0 21 0 0 0 0 0 0 0 0 0 0 0 0 0 0 0 0 0 0 0 0 0 0 -16 0 0 21 0 0 11 0 0 0 -8 0 0 0 0 0 0 0 0 0 0 0 0 0 0 0 0 0 0 0 0 8 0 0 0 0 0 0 0 0 0 0 0 0 0 0 0 0 0
-0.2095 17.8336 -30.6658 1.5296 1.1435 0.1576 0.0000 0.0000 0.0000 -19.4740 -4.9881 -5.4163 1.8499 8.5462 24.3859 0.2617 7.9967 -15.6927 0.2313 -3.0954 -8.5444 0.0000 0.0000 0.0000 15.0133 -0.9067 -11.1760 -3.1752 -10.9735 32.1905 -0.0480 -15.6702 -22.7099 -0.0002 -0.0953 0.2619 -4.5780 -0.4306 5.5909 1.8178 -0.8311 -1.4724 4.5487 -0.2573 -4.5812 7.0656 -3.2493 -21.7945 -9.1093 -4.4363 28.8779 -5.5327 -2.4645 12.8498 -0.0000 0.0000 0.0000 -87.9824 4.0979 19.8862 13.7475 -22.3726 -2.7313 -0.0000 0.0000 -7.2415 13.5016 1.2365 0.2969 -7.1250 0.0000 -0.0000 -10.3940 31.1494 3.5709 -0.0000 0.0000 0.0000 86.9800 -2.2960 -5.7176 -8.7338 14.7352 -1.1315 0.0000 0.0000 9.4659 -17.0208 -3.6563 1.1184 7.1250 -0.0000 -0.0000 7.8545 -33.7255 2.1892
-0.2125 17.8229 -30.6507 1.4959 1.3252 -0.2952 0.0000 0.0000 0.0000 -19.4984 -5.0346 -4.8594 1.8633 8.5753 24.4756 0.2576 8.1013 -15.7480 0.2407 -3.1575 -8.7177 0.0000 0.0000 0.0000 15.0594 -1.1346 -10.6031 -3.1696 -10.9646 32.1607 -0.0484 -15.8356 -22.9407 -0.0000 0.0140 -0.0385 -2.1558 -2.0696 9.7774 1.0165 -2.9803 -3.6977 2.8203 -1.2791 -9.2769 7.7205 -1.1784 -22.2984 -9.1202 -1.6447 31.3812 -5.4133 -1.1147 14.3361 0.0000 0.0000 0.0000 -87.6057 8.7034 16.5474 14.5709 -23.5449 -3.0525 -0.0000 0.0000 -8.2220 13.3284 1.4380 0.3407 -7.1250 0.0000 -0.0000 -10.5543 31.3492 3.5761 0.0000 0.0000 0.0000 87.5285 -5.7991 -0.5093 -8.8623 14.9407 -1.1644 0.0000 0.0000 8.7792 -16.9049 -3.1987 0.9716 7.1250 -0.0000 -0.0000 7.8982 -33.2479 2.2937
-0.2151 17.8123 -30.6372 1.3342 1.4464 -0.7358 0.0000 0.0000 0.0000 -19.3741 -5.0221 -4.2917 1.8610 8.5704 24.4603 0.2584 8.1680 -15.8286 0.2414 -3.1616 -8.7290 0.0000 0.0000 0.0000 15.2501 -1.2814 -10.0490 -3.1656 -10.9585 32.1399 -0.0531 -16.0229 -23.2413 -0.0008 0.1792 -0.4923 0.1597 -3.6792 13.8411 0.5094 -4.8817 -5.8546 1.7420 -2.2454 -14.3033 8.3192 0.8127 -22.9511 -9.0543 1.0800 33.7161 -5.1985 0.1757 15.9246 0.0000 0.0000 0.0000 -87.8555 13.4412 13.4447 15.3752 -24.6661 -3.3810 -0.0000 0.0000 -9.0463 13.3753 1.4465 0.3439 -7.1250 0.0000 -0.0000 -10.5183 31.3589 3.5611 0.0000 0.0000 0.0000 87.5474 -9.4398 3.6824 -8.9258 15.0421 -1.1808 0.0000 0.0000 9.2946 -16.6469 -2.5282 0.7557 7.1250 -0.0000 -0.0000 8.0351 -32.5468 2.4714
-0.2306 17.8238 -30.6262 1.4215 1.2818 -0.2132 0.0000 0.0000 0.0000 -19.3261 -4.7980 -4.9299 1.8593 8.5666 24.4488 0.2692 7.9480 -15.7445 0.2312 -3.0950 -8.5434 0.0000 0.0000 0.0000 15.2143 -1.0083 -10.5353 -3.1630 -10.9543 32.1260 -0.0570 -16.0496 -23.3144 -0.0019 0.2795 -0.7680 -0.6015 -3.2766 12.0989 0.6771 -4.4476 -5.2810 2.0849 -2.0156 -12.4935 8.1800 0.4090 -22.5997 -9.1113 0.5463 32.7612 -5.2185 -0.0915 15.3120 -0.0000 0.0000 0.0000 -87.8913 12.1176 14.4506 15.3417 -24.6200 -3.3670 -0.0000 0.0000 -8.9224 13.3450 1.2893 0.3058 -7.1250 0.0000 -0.0000 -10.5235 31.1993 3.6039 -0.0000 0.0000 0.0000 87.5296 -8.6571 3.8335 -9.1453 15.3917 -1.2384 0.0000 0.0000 8.1020 -16.9379 -2.7971 0.8514 7.1250 -0.0000 -0.0000 7.8291 -32.8333 2.3524
-0.2400 17.8257 -30.6153 1.4040 1.2759 -0.1063 0.0000 0.0000 0.0000 -19.2539 -4.7028 -5.0427 1.8570 8.5617 24.4337 0.2741 7.8590 -15.7182 0.2293 -3.0822 -8.5077 0.0000 0.0000 0.0000 15.2688 -0.9544 -10.5860 -3.1597 -10.9491 32.1085 -0.0587 -16.1276 -23.4364 -0.0033 0.3704 -1.0178 -0.2035 -3.6159 12.6079 0.6111 -4.8511 -5.7141 1.9450 -2.2206 -13.3348 8.3066 0.8429 -22.7186 -9.1131 1.1521 33.1668 -5.1628 0.1874 15.6134 0.0000 -0.0000 0.0000 -88.0497 13.0586 14.0101 15.6212 -25.0044 -3.4843 -0.0000 0.0000 -9.1381 13.3438 1.2626 0.2995 -7.1250 0.0000 -0.0000 -10.5213 31.1723 3.6100 0.0000 -0.0000 0.0000 87.4671 -9.5804 5.4370 -9.3283 15.6821 -1.2874 0.0000 0.0000 7.4269 -17.0196 -2.7393 0.8381 7.1250 -0.0000 -0.0000 7.7573 -32.7759 2.3413
-0.2498 17.8287 -30.6053 1.3937 1.2987 0.0520 0.0000 0.0000 0.0000 -19.1797 -4.6136 -5.1993 1.8481 8.5421 24.3733 0.2787 7.7362 -15.6549 0.2275 -3.0703 -8.4744 0.0000 0.0000 0.0000 15.3164 -0.9105 -10.7022 -3.1574 -10.9456 32.0967 -0.0598 -16.1889 -23.5300 -0.0043 0.4227 -1.1613 -0.1031 -3.7472 12.5629 0.6068 -5.0129 -5.8420 1.9264 -2.3028 -13.4623 8.3657 0.9965 -22.7246 -9.1444 1.3720 33.2197 -5.1501 0.2842 15.6704 0.0000 0.0000 0.0000 -88.1609 13.3464 14.0406 15.8051 -25.2556 -3.5624 -0.0000 0.0000 -9.2436 13.3765 1.2174 0.2895 -7.1250 0.0000 -0.0000 -10.4904 31.1274 3.6106 0.0000 0.0000 0.0000 87.4201 -10.0087 6.4546 -9.5158 15.9786 -1.3386 0.0000 0.0000 6.7240 -17.1299 -2.7430 0.8450 7.1250 -0.0000 -0.0000 7.6689 -32.7829 2.3129
